<svg width="60" height="60" viewBox="0 0 60 60" fill="none" xmlns="http://www.w3.org/2000/svg">
<mask id="mask0_12_14" style="mask-type:alpha" maskUnits="userSpaceOnUse" x="0" y="0" width="60" height="60">
<circle cx="30" cy="30" r="30" fill="#D9D9D9"/>
</mask>
<g mask="url(#mask0_12_14)">
<mask id="mask1_12_14" style="mask-type:luminance" maskUnits="userSpaceOnUse" x="-16" y="-37" width="138" height="98">
<path d="M-15.9183 -36.5306H121.292V60.6123H-15.9183V-36.5306Z" fill="white"/>
</mask>
<g mask="url(#mask1_12_14)">
<path fill-rule="evenodd" clip-rule="evenodd" d="M-15.4587 -36.0709H75.7523V92.9276H-15.4587V-36.0709Z" fill="#E8E9EA"/>
<path d="M38.5447 8.90787L36.7478 12.5659L41.0276 12.2788C41.0839 12.275 41.14 12.2732 41.1957 12.273L43.0442 12.1488L50.1059 17.2355L41.567 17.8084C41.5092 17.8159 41.451 17.8218 41.3921 17.8256L32.3526 18.4323L32.1625 18.4366C31.9545 18.4324 31.7437 18.4045 31.5334 18.351C30.0457 17.9731 29.146 16.4605 29.524 14.9728C30.4211 11.462 31.32 7.87473 32.2312 4.32651L38.5447 8.90787ZM25.7618 53.4177H22.5064L22.3557 54.0684H23.6004L23.124 56.1263H23.7741L24.2505 54.0684H25.6112L25.7618 53.4177ZM28.6793 54.0665L28.8298 53.4165H26.1709L25.5411 56.1372H28.2L28.3505 55.4871H26.3416L26.4308 55.1022H28.2661L28.4167 54.4515H26.5814L26.6705 54.0665H28.6793ZM31.4349 53.401H30.8674L28.4885 56.1249H29.2611L29.7963 55.5124H31.5285L31.78 56.1249H32.5526L31.4349 53.401ZM30.364 54.8623L30.9748 54.1625L31.2617 54.8623H30.364ZM37.3078 53.4209L35.4763 54.7443L34.258 53.4209H33.5293L32.9031 56.1263H33.5531L33.9958 54.2141L35.1434 55.4608H35.4782L37.2022 54.2141L36.7596 56.1263H37.4096L38.0358 53.4209H37.3078ZM51.8475 46.9881L48.2806 49.7332C45.1819 49.7332 42.0832 49.7332 38.9844 49.7332L42.5513 46.9881H44.2916L44.7135 45.0656H43.749L37.5947 49.7332C35.9751 49.7332 34.3555 49.7332 32.736 49.7332H32.7347L33.7587 45.0656H32.8298L31.8058 49.7332C26.8387 49.7332 21.8715 49.7332 16.9043 49.7332L15.7124 46.8397L15.0776 49.7332H11.5182L12.5422 45.0656H8.54395L12.1108 42.3206C13.9504 42.3206 15.79 42.3206 17.6294 42.3206L18.7133 44.9517L19.2905 42.3206H22.8499L21.8259 46.9881H22.7096L23.7336 42.3206C28.4626 42.3206 33.1914 42.3206 37.9204 42.3206L37.0042 46.496L42.5098 42.3206C44.6316 42.3206 46.7532 42.3206 48.875 42.3206L47.851 46.9881H51.8475ZM26.269 46.9881H28.8487L29.2705 45.0656H26.6908L26.269 46.9881ZM45.4258 26.6103L41.3915 26.0318L42.9872 30.0133C43.0081 30.0658 43.0272 30.1185 43.0447 30.1714L43.7339 31.8911L41.0785 40.179L37.8948 32.2351C37.8699 32.1825 37.8463 32.1289 37.8244 32.0742L34.4541 23.6645L34.3913 23.4849C34.331 23.2859 34.2924 23.0768 34.2783 22.8602C34.178 21.3285 35.3385 20.0055 36.8702 19.9053C40.4864 19.6735 44.1759 19.42 47.832 19.1901L45.4258 26.6103ZM30.7162 38.625L30.0198 34.6094L26.7262 37.3574C26.6828 37.3935 26.6386 37.4279 26.5936 37.4608L25.1711 38.6477L16.4682 38.6834L23.0395 33.2007C23.0818 33.1608 23.1255 33.1218 23.1709 33.0841L30.1274 27.28L30.2786 27.1647C30.4495 27.0459 30.6364 26.9446 30.838 26.8642C32.2637 26.2955 33.8806 26.9904 34.4493 28.4161C35.7871 31.7837 37.1684 35.2143 38.5168 38.6205L30.7162 38.625ZM14.7441 28.3482L18.3479 26.4449L14.7167 24.1616C14.669 24.1314 14.6225 24.1 14.5773 24.0675L13.0089 23.0814L10.2856 14.8155L17.5306 19.3709C17.5817 19.3988 17.6322 19.4284 17.6821 19.4598L25.3519 24.2824L25.5083 24.3905C25.674 24.5163 25.8281 24.6627 25.9669 24.8296C26.9483 26.0098 26.7871 27.7623 25.6068 28.7437C22.8175 31.0567 19.9817 33.4305 17.1588 35.7655L14.7441 28.3482ZM19.5823 9.98193L22.506 12.8213L23.5555 8.66225C23.5693 8.60747 23.5849 8.55365 23.6019 8.50049L24.0551 6.70409L31.0749 1.55984L28.9812 9.85799C28.9704 9.91517 28.958 9.97235 28.9435 10.0296L26.7271 18.8142L26.6725 18.9963C26.6041 19.1928 26.5125 19.3847 26.3967 19.5682C25.5774 20.8663 23.8609 21.2545 22.5628 20.4353C19.5011 18.4972 16.3672 16.5337 13.2742 14.5707L19.5823 9.98193Z" fill="#2B2B2A"/>
</g>
<rect x="17.7551" y="52.0409" width="26.5306" height="4.08163" fill="#E8E9EA"/>
</g>
</svg>
