<svg width="294" height="294" viewBox="0 0 294 294" fill="none" xmlns="http://www.w3.org/2000/svg">
<mask id="mask0_12_14" style="mask-type:alpha" maskUnits="userSpaceOnUse" x="0" y="0" width="294" height="294">
<circle cx="147" cy="147" r="147" fill="#D9D9D9"/>
</mask>
<g mask="url(#mask0_12_14)">
<mask id="mask1_12_14" style="mask-type:luminance" maskUnits="userSpaceOnUse" x="-78" y="-179" width="673" height="476">
<path d="M-78 -179H594.332V297H-78V-179Z" fill="white"/>
</mask>
<g mask="url(#mask1_12_14)">
<path fill-rule="evenodd" clip-rule="evenodd" d="M-75.7479 -176.748H371.186V455.345H-75.7479V-176.748Z" fill="white"/>
<path d="M188.869 43.6485L180.064 61.5729L201.035 60.1659C201.311 60.1476 201.586 60.1389 201.859 60.1375L210.916 59.5293L245.519 84.4539L203.678 87.2613C203.395 87.2978 203.11 87.327 202.821 87.3456L158.528 90.318L157.596 90.3395C156.577 90.3187 155.544 90.1819 154.514 89.92C147.224 88.0682 142.815 80.6563 144.668 73.3668C149.063 56.1637 153.468 38.5862 157.933 21.1999L188.869 43.6485ZM126.233 261.747H110.281L109.543 264.935H115.642L113.308 275.019H116.493L118.827 264.935H125.495L126.233 261.747ZM140.529 264.926L141.266 261.741H128.237L125.151 275.072H138.18L138.917 271.887H129.074L129.511 270.001H138.504L139.242 266.812H130.249L130.685 264.926H140.529ZM154.031 261.665H151.25L139.594 275.012H143.379L146.002 272.011H154.49L155.722 275.012H159.508L154.031 261.665ZM148.784 268.825L151.777 265.396L153.182 268.825H148.784ZM182.808 261.763L173.834 268.247L167.864 261.763H164.294L161.225 275.019H164.41L166.579 265.649L172.203 271.758H173.843L182.291 265.649L180.122 275.019H183.307L186.376 261.763H182.808ZM254.053 230.242L236.575 243.693C221.391 243.693 206.208 243.693 191.023 243.693L208.501 230.242H217.029L219.096 220.822H214.37L184.214 243.693C176.278 243.693 168.342 243.693 160.406 243.693H160.4L165.418 220.822H160.866L155.848 243.693C131.509 243.693 107.17 243.693 82.8311 243.693L76.9906 229.514L73.88 243.693H56.439L61.4567 220.822H41.8653L59.3431 207.371C68.357 207.371 77.3708 207.371 86.3842 207.371L91.695 220.263L94.5236 207.371H111.964L106.947 230.242H111.277L116.295 207.371C139.467 207.371 162.638 207.371 185.81 207.371L181.321 227.83L208.298 207.371C218.695 207.371 229.091 207.371 239.488 207.371L234.47 230.242H254.053ZM128.718 230.241H141.359L143.426 220.822H130.785L128.718 230.241ZM222.587 130.39L202.819 127.556L210.637 147.065C210.74 147.322 210.833 147.58 210.919 147.84L214.296 156.266L201.285 196.877L185.685 157.952C185.562 157.694 185.447 157.432 185.34 157.163L168.825 115.956L168.517 115.076C168.222 114.101 168.033 113.076 167.963 112.015C167.472 104.51 173.159 98.0268 180.664 97.5359C198.383 96.4003 216.462 95.1582 234.377 94.0316L222.587 130.39ZM150.509 189.262L147.097 169.586L130.958 183.051C130.746 183.228 130.529 183.397 130.309 183.558L123.338 189.374L80.694 189.549L112.894 162.684C113.101 162.488 113.315 162.297 113.537 162.112L147.624 133.672L148.365 133.107C149.203 132.525 150.118 132.028 151.106 131.634C158.092 128.848 166.015 132.253 168.801 139.239C175.357 155.74 182.125 172.55 188.732 189.24L150.509 189.262ZM72.246 138.906L89.9048 129.58L72.1118 118.392C71.8779 118.244 71.6503 118.09 71.4288 117.931L63.7436 113.099L50.3996 72.5957L85.9 94.9174C86.1504 95.0542 86.398 95.199 86.6425 95.3529L124.224 118.983L124.99 119.514C125.802 120.13 126.558 120.847 127.238 121.665C132.046 127.448 131.257 136.035 125.473 140.844C111.806 152.178 97.9103 163.809 84.0783 175.251L72.246 138.906ZM95.9532 48.9114L110.28 62.8242L115.422 42.445C115.49 42.1766 115.566 41.9129 115.649 41.6524L117.87 32.85L152.267 7.64319L142.008 48.3041C141.955 48.5843 141.894 48.8645 141.823 49.1449L130.963 92.1894L130.695 93.0817C130.36 94.0447 129.911 94.9848 129.344 95.8841C125.329 102.245 116.919 104.147 110.558 100.133C95.5555 90.6364 80.1993 81.0152 65.0434 71.3962L95.9532 48.9114Z" fill="#2B2B2A"/>
</g>
<rect x="87" y="255" width="130" height="20" fill="white"/>
</g>
</svg>
