<svg width="80" height="80" viewBox="0 0 80 80" fill="none" xmlns="http://www.w3.org/2000/svg">
<mask id="mask0_12_14" style="mask-type:alpha" maskUnits="userSpaceOnUse" x="0" y="0" width="80" height="80">
<circle cx="40" cy="40" r="40" fill="#D9D9D9"/>
</mask>
<g mask="url(#mask0_12_14)">
<mask id="mask1_12_14" style="mask-type:luminance" maskUnits="userSpaceOnUse" x="-22" y="-49" width="184" height="130">
<path d="M-21.2244 -48.7075H161.723V80.8163H-21.2244V-48.7075Z" fill="white"/>
</mask>
<g mask="url(#mask1_12_14)">
<path fill-rule="evenodd" clip-rule="evenodd" d="M-20.6116 -48.0945H101.003V123.904H-20.6116V-48.0945Z" fill="#E8E9EA"/>
<path d="M51.3929 11.8772L48.9971 16.7545L54.7034 16.3717C54.7785 16.3667 54.8533 16.3643 54.9275 16.3639L57.3922 16.1985L66.8079 22.9807L55.4227 23.7446C55.3456 23.7545 55.268 23.7624 55.1895 23.7675L43.1367 24.5763L42.8833 24.5822C42.606 24.5765 42.3249 24.5393 42.0445 24.468C40.0609 23.9642 38.8613 21.9473 39.3654 19.9638C40.5614 15.2826 41.7599 10.4996 42.9749 5.76868L51.3929 11.8772ZM34.349 71.2237H30.0084L29.8076 72.0912H31.4671L30.832 74.835H31.6987L32.3339 72.0912H34.1482L34.349 71.2237ZM38.2391 72.0886L38.4397 71.222H34.8945L34.0548 74.8496H37.6L37.8007 73.9828H35.1222L35.241 73.4696H37.6882L37.889 72.6019H35.4418L35.5606 72.0886H38.2391ZM41.9132 71.2013H41.1565L37.9847 74.8332H39.0147L39.7284 74.0165H42.038L42.3734 74.8332H43.4034L41.9132 71.2013ZM40.4854 73.1497L41.2997 72.2167L41.6822 73.1497H40.4854ZM49.7437 71.2279L47.3017 72.9924L45.6773 71.2279H44.7057L43.8708 74.835H44.7375L45.3277 72.2855L46.8579 73.9477H47.3042L49.6029 72.2855L49.0128 74.835H49.8794L50.7144 71.2279H49.7437ZM69.13 62.6508L64.3741 66.3109C60.2425 66.3109 56.1109 66.3109 51.9792 66.3109L56.7351 62.6508H59.0555L59.6179 60.0875H58.3319L50.1262 66.3109C47.9668 66.3109 45.8074 66.3109 43.6479 66.3109H43.6462L45.0116 60.0875H43.7731L42.4077 66.3109C35.7849 66.3109 29.1619 66.3109 22.5391 66.3109L20.9498 62.4529L20.1034 66.3109H15.3575L16.7229 60.0875H11.3919L16.1478 56.4274C18.6005 56.4274 21.0533 56.4274 23.5059 56.4274L24.951 59.9355L25.7207 56.4274H30.4665L29.1012 62.6508H30.2795L31.6448 56.4274C37.9501 56.4274 44.2552 56.4274 50.5605 56.4274L49.3389 61.9947L56.6797 56.4274C59.5087 56.4274 62.3376 56.4274 65.1667 56.4274L63.8013 62.6508H69.13ZM35.0253 62.6507H38.4649L39.0274 60.0875H35.5877L35.0253 62.6507ZM60.5678 35.4804L55.1887 34.709L57.3163 40.0178C57.3441 40.0877 57.3696 40.158 57.3929 40.2285L58.3119 42.5215L54.7713 53.572L50.5264 42.9801C50.4932 42.91 50.4617 42.8385 50.4325 42.7656L45.9388 31.5527L45.855 31.3132C45.7747 31.0478 45.7232 30.7691 45.7043 30.4803C45.5706 28.438 47.118 26.674 49.1602 26.5404C53.9818 26.2314 58.9011 25.8934 63.776 25.5868L60.5678 35.4804ZM40.9549 51.5L40.0264 46.1458L35.6349 49.8098C35.577 49.858 35.518 49.9038 35.4581 49.9478L33.5614 51.5303L21.9576 51.5779L30.7194 44.2676C30.7758 44.2144 30.834 44.1624 30.8945 44.1122L40.1699 36.3734L40.3715 36.2196C40.5993 36.0612 40.8485 35.9261 41.1173 35.8189C43.0183 35.0607 45.1742 35.9872 45.9323 37.8882C47.7161 42.3783 49.5578 46.9524 51.3557 51.4939L40.9549 51.5ZM19.6588 37.7975L24.4639 35.2598L19.6222 32.2155C19.5586 32.1753 19.4967 32.1334 19.4364 32.09L17.3452 30.7751L13.7142 19.7539L23.3742 25.8279C23.4423 25.8651 23.5096 25.9045 23.5762 25.9464L33.8025 32.3765L34.011 32.5207C34.232 32.6884 34.4374 32.8836 34.6225 33.1061C35.931 34.6797 35.7161 37.0164 34.1424 38.3249C30.4233 41.4089 26.6423 44.574 22.8784 47.6873L19.6588 37.7975ZM26.1097 13.3092L30.008 17.095L31.4073 11.5497C31.4258 11.4766 31.4465 11.4049 31.4691 11.334L32.0735 8.93879L41.4332 2.07979L38.6416 13.144C38.6272 13.2202 38.6106 13.2965 38.5913 13.3728L35.6361 25.0856L35.5633 25.3284C35.4722 25.5904 35.35 25.8462 35.1955 26.0909C34.1032 27.8217 31.8146 28.3394 30.0838 27.2471C26.0015 24.663 21.8229 22.045 17.6989 19.4275L26.1097 13.3092Z" fill="#2B2B2A"/>
</g>
<rect x="23.6735" y="69.3878" width="35.3742" height="5.44218" fill="#E8E9EA"/>
</g>
</svg>
